<svg width="10" height="10" viewBox="0 0 10 10" fill="none" xmlns="http://www.w3.org/2000/svg">
<path fill-rule="evenodd" clip-rule="evenodd" d="M0.555556 0H2.5C2.80556 0 3.05556 0.25 3.05556 0.555556C3.05556 1.25 3.16667 1.91667 3.37222 2.53889C3.43333 2.73333 3.38889 2.95 3.23333 3.10556L2.01111 4.32778C2.81111 5.9 4.1 7.18333 5.67222 7.98889L6.89444 6.76667C7.00556 6.66111 7.14444 6.60556 7.28889 6.60556C7.34444 6.60556 7.40556 6.61111 7.46111 6.63333C8.08333 6.83889 8.75556 6.95 9.44444 6.95C9.75 6.95 10 7.2 10 7.50556V9.44444C10 9.75 9.75 10 9.44444 10C4.22778 10 0 5.77222 0 0.555556C0 0.25 0.25 0 0.555556 0ZM1.96657 1.11108C1.99991 1.60553 2.08324 2.08886 2.21657 2.54997L1.54991 3.21664C1.32213 2.54997 1.17769 1.84442 1.12769 1.11108H1.96657ZM7.44425 7.78882C7.91648 7.92215 8.39981 8.00548 8.8887 8.03882V8.8666C8.15537 8.8166 7.44981 8.67215 6.77759 8.44993L7.44425 7.78882Z" fill="white"></path>
</svg>